<svg width="315" height="137" viewBox="0 0 315 137" fill="none" xmlns="http://www.w3.org/2000/svg">
<circle cx="10" cy="10" r="10" fill="#292929"/>
<circle cx="10" cy="49" r="10" fill="#292929"/>
<circle cx="10" cy="88" r="10" fill="#292929"/>
<circle cx="10" cy="127" r="10" fill="#292929"/>
<circle cx="47" cy="10" r="10" fill="#292929"/>
<circle cx="47" cy="49" r="10" fill="#292929"/>
<circle cx="47" cy="88" r="10" fill="#292929"/>
<circle cx="47" cy="127" r="10" fill="#292929"/>
<circle cx="82" cy="10" r="10" fill="#292929"/>
<circle cx="82" cy="49" r="10" fill="#292929"/>
<circle cx="82" cy="88" r="10" fill="#292929"/>
<circle cx="82" cy="127" r="10" fill="#292929"/>
<circle cx="116" cy="10" r="10" fill="#292929"/>
<circle cx="116" cy="49" r="10" fill="#292929"/>
<circle cx="116" cy="88" r="10" fill="#292929"/>
<circle cx="116" cy="127" r="10" fill="#292929"/>
<circle cx="149" cy="10" r="10" fill="#292929"/>
<circle cx="185" cy="10" r="10" fill="#292929"/>
<circle cx="225" cy="10" r="10" fill="#292929"/>
<circle cx="265" cy="10" r="10" fill="#292929"/>
<circle cx="305" cy="10" r="10" fill="#292929"/>
<circle cx="149" cy="49" r="10" fill="#292929"/>
<circle cx="185" cy="49" r="10" fill="#292929"/>
<circle cx="225" cy="49" r="10" fill="#292929"/>
<circle cx="265" cy="49" r="10" fill="#292929"/>
<circle cx="305" cy="49" r="10" fill="#292929"/>
<circle cx="149" cy="88" r="10" fill="#292929"/>
<circle cx="185" cy="88" r="10" fill="#292929"/>
<circle cx="225" cy="88" r="10" fill="#292929"/>
<circle cx="265" cy="88" r="10" fill="#292929"/>
<circle cx="305" cy="88" r="10" fill="#292929"/>
<circle cx="149" cy="127" r="10" fill="#292929"/>
<circle cx="185" cy="127" r="10" fill="#292929"/>
<circle cx="225" cy="127" r="10" fill="#292929"/>
<circle cx="265" cy="127" r="10" fill="#292929"/>
<circle cx="305" cy="127" r="10" fill="#292929"/>
</svg>
