<svg width="347" height="105" viewBox="0 0 347 105" fill="none" xmlns="http://www.w3.org/2000/svg">
<path d="M3 38.5L44.5 6L78 38.5L114 6L146.5 38.5L185.5 6L216.5 38.5L251.5 6L280 38.5L311 6L343.5 38.5" stroke="#B5B5B5" stroke-width="8"/>
<path d="M3 66.5L44.5 34L78 66.5L114 34L146.5 66.5L185.5 34L216.5 66.5L251.5 34L280 66.5L311 34L343.5 66.5" stroke="#B5B5B5" stroke-width="8"/>
<path d="M3 98.5L44.5 66L78 98.5L114 66L146.5 98.5L185.5 66L216.5 98.5L251.5 66L280 98.5L311 66L343.5 98.5" stroke="#B5B5B5" stroke-width="8"/>
</svg>
